<svg width="376" height="304" viewBox="0 0 376 304" fill="none" xmlns="http://www.w3.org/2000/svg">
<path d="M370.935 292.714L342.5 287.5L352.483 264.933L370.935 292.714Z" fill="#252525"/>
<path d="M134.138 211C134.138 197.193 145.331 186 159.138 186H331.908C345.716 186 356.908 197.193 356.908 211V288.087H159.138C145.331 288.087 134.138 276.894 134.138 263.087V211Z" fill="#252525"/>
<line x1="322.134" y1="266" x2="167.673" y2="266" stroke="white" stroke-width="2"/>
<line y1="-1" x2="96.5865" y2="-1" transform="matrix(-1 0 0.00694317 -0.999976 322.176 245.768)" stroke="white" stroke-width="2"/>
<line x1="322.611" y1="229" x2="262.179" y2="229" stroke="white" stroke-width="2"/>
<line x1="321.952" y1="210.795" x2="194.57" y2="210.795" stroke="white" stroke-width="2"/>
<path d="M6.81126 145.739L33.6381 110.781L46 137.5L6.81126 145.739Z" fill="#252525"/>
<path d="M23 25C23 11.1929 34.1929 0 48 0H230C243.807 0 255 11.1929 255 25V113C255 126.807 243.807 138 230 138H23V25Z" fill="#252525"/>
<line y1="-1" x2="77.2374" y2="-1" transform="matrix(0.999907 -0.0136662 0.0141124 0.9999 54.8746 90)" stroke="white" stroke-width="2"/>
<line y1="-1" x2="175.379" y2="-1" transform="matrix(0.999964 -0.0085201 0.00543123 0.999985 54.8746 67.4942)" stroke="white" stroke-width="2"/>
<line x1="54.8746" y1="45" x2="181.664" y2="45" stroke="white" stroke-width="2"/>
<line x1="55" y1="110" x2="197" y2="110" stroke="white" stroke-width="2"/>
<line x1="54.5941" y1="24.8458" x2="208.637" y2="24.8458" stroke="white" stroke-width="2"/>
</svg>
